<svg width="136" height="63" viewBox="0 0 136 63" fill="none" xmlns="http://www.w3.org/2000/svg">
<path d="M14.1266 40.2698H16.8457V55.922H14.1266V53.2298C12.7723 55.2959 10.8033 56.3289 8.21967 56.3289C6.03192 56.3289 4.16712 55.5307 2.62527 53.9341C1.08342 52.3376 0.3125 50.3915 0.3125 48.0959C0.3125 45.8002 1.08342 43.8541 2.62527 42.2576C4.16712 40.6611 6.03192 39.8628 8.21967 39.8628C10.8033 39.8628 12.7723 40.8958 14.1266 42.9619V40.2698ZM8.56346 53.6994C10.147 53.6994 11.47 53.162 12.5327 52.0872C13.5953 51.0124 14.1266 49.682 14.1266 48.0959C14.1266 46.5098 13.5953 45.1793 12.5327 44.1045C11.47 43.0298 10.147 42.4924 8.56346 42.4924C7.00078 42.4924 5.68813 43.0298 4.6255 44.1045C3.56288 45.1793 3.03157 46.5098 3.03157 48.0959C3.03157 49.682 3.56288 51.0124 4.6255 52.0872C5.68813 53.162 7.00078 53.6994 8.56346 53.6994ZM23.6902 42.8993C24.5862 40.9584 26.2114 39.988 28.5658 39.988V42.8367C27.2323 42.7741 26.0863 43.1289 25.1279 43.9011C24.1694 44.6732 23.6902 45.915 23.6902 47.6263V55.922H20.9712V40.2698H23.6902V42.8993ZM48.0993 39.8628C49.8495 39.8628 51.2664 40.4315 52.3498 41.5689C53.4333 42.7063 53.975 44.2454 53.975 46.1863V55.922H51.2559V46.2802C51.2559 45.0698 50.9434 44.1306 50.3183 43.4628C49.6933 42.795 48.8598 42.4611 47.818 42.4611C46.6512 42.4611 45.7188 42.8524 45.0208 43.635C44.3228 44.4176 43.9738 45.6124 43.9738 47.2193V55.922H41.2548V46.2802C41.2548 45.0698 40.9579 44.1306 40.364 43.4628C39.7702 42.795 38.9628 42.4611 37.9419 42.4611C36.7959 42.4611 35.8427 42.8576 35.0822 43.6506C34.3217 44.4437 33.9414 45.6332 33.9414 47.2193V55.922H31.2224V40.2698H33.9414V42.3671C35.004 40.6976 36.5563 39.8628 38.5982 39.8628C40.7026 39.8628 42.2341 40.7498 43.1925 42.5237C44.276 40.7498 45.9116 39.8628 48.0993 39.8628ZM68.6642 40.2698H71.5708L65.1951 56.8924C64.5283 58.6663 63.5959 60.0176 62.3979 60.9463C61.1998 61.875 59.8194 62.2872 58.2567 62.1829V59.6472C60.1736 59.7933 61.5801 58.7289 62.476 56.4541L62.7573 55.8594L55.944 40.2698H58.8506L64.1637 52.5411L68.6642 40.2698Z" fill="#5FE0C6"/>
<path d="M12.7932 5.20876C9.84802 4.9865 8.37598 6.16877 8.37598 8.7566V8.9653H12.7932V14.141H8.37598V29.8349H3.00035V14.141H0V8.9653H3.00035V8.7566C3.00035 5.80668 3.82024 3.56737 5.45897 2.03658C7.0977 0.505789 9.54278 -0.162039 12.7932 0.0330921V5.20876ZM20.6274 12.5549C21.1275 11.2192 21.9536 10.2175 23.1069 9.54965C24.2601 8.88182 25.5446 8.54791 26.9615 8.54791V14.5584C25.3227 14.3632 23.8569 14.6971 22.5651 15.5601C21.2733 16.4231 20.6274 17.8558 20.6274 19.8593V29.8349H15.2518V8.9653H20.6274V12.5549ZM47.8389 27.2471C45.7001 29.3622 43.0884 30.4193 40.0047 30.4193C36.921 30.4193 34.3165 29.3549 32.1913 27.2262C30.066 25.0975 29.0034 22.4888 29.0034 19.4001C29.0034 16.3114 30.066 13.7027 32.1913 11.574C34.3165 9.4453 36.921 8.38095 40.0047 8.38095C43.0884 8.38095 45.7001 9.4453 47.8389 11.574C49.9777 13.7027 51.0476 16.3114 51.0476 19.4001C51.0476 22.4888 49.9777 25.1048 47.8389 27.2471ZM35.9625 23.5323C37.046 24.6175 38.393 25.1601 40.0047 25.1601C41.6163 25.1601 42.9633 24.6175 44.0468 23.5323C45.1303 22.4471 45.672 21.0697 45.672 19.4001C45.672 17.7305 45.1303 16.3532 44.0468 15.2679C42.9633 14.1827 41.6163 13.6401 40.0047 13.6401C38.393 13.6401 37.0533 14.1827 35.9834 15.2679C34.9134 16.3532 34.379 17.7305 34.379 19.4001C34.379 21.0697 34.9072 22.4471 35.9625 23.5323ZM66.4244 8.38095C68.7028 8.38095 70.5843 9.14582 72.0709 10.6766C73.5575 12.2074 74.3003 14.3215 74.3003 17.021V29.8349H68.9247V17.6888C68.9247 16.2978 68.5497 15.2335 67.7996 14.4958C67.0495 13.758 66.0494 13.3897 64.7992 13.3897C63.4105 13.3897 62.2989 13.8206 61.4655 14.6836C60.6321 15.5465 60.2153 16.8405 60.2153 18.5653V29.8349H54.8397V8.9653H60.2153V11.3027C61.5207 9.35452 63.5907 8.38095 66.4244 8.38095ZM90.8023 14.141H86.0934V22.8227C86.0934 23.5459 86.2736 24.0749 86.6351 24.4088C86.9966 24.7427 87.5237 24.9306 88.2186 24.9723C88.9135 25.0141 89.774 25.0068 90.8023 24.9514V29.8349C87.107 30.2523 84.5026 29.9049 82.9888 28.7915C81.4751 27.6781 80.7177 25.6892 80.7177 22.8227V14.141H77.0923V8.9653H80.7177V4.74963L86.0934 3.1218V8.9653H90.8023V14.141Z" fill="white"/>
<path fill-rule="evenodd" clip-rule="evenodd" d="M110.194 9.22314L113.912 10.1456L102.234 55.6644L98.5166 54.7419L110.194 9.22314ZM119.764 15.7094L117.225 18.2868L133.461 35.3332L136 32.7558L119.764 15.7094Z" fill="white"/>
<path fill-rule="evenodd" clip-rule="evenodd" d="M119.763 49.7706L117.225 47.1932L133.461 30.1479L136 32.7254L119.763 49.7706Z" fill="white"/>
</svg>
